<svg viewBox="0 0 32 32" enable-background="new 0 0 32 32" version="1.1" xmlSpace="preserve" xmlns="http://www.w3.org/2000/svg" xmlnsXlink="http://www.w3.org/1999/xlink" fill="#000000"><g id="SVGRepo_bgCarrier" stroke-width="0"></g><g id="SVGRepo_tracerCarrier" stroke-linecap="round" stroke-linejoin="round"></g><g id="SVGRepo_iconCarrier"> <g id="Layer_2"></g> <g id="Layer_3"></g> <g id="Layer_4"></g> <g id="Layer_5"></g> <g id="Layer_6"></g> <g id="Layer_7"></g> <g id="Layer_8"></g> <g id="Layer_9"></g> <g id="Layer_10"></g> <g id="Layer_11"></g> <g id="Layer_12"></g> <g id="Layer_13"></g> <g id="Layer_14"></g> <g id="Layer_15"></g> <g id="Layer_16"> <g> <path d="M27,4v24c0,1.65-1.35,3-3,3H8c-1.65,0-3-1.35-3-3V4c0-1.65,1.35-3,3-3h16C25.65,1,27,2.35,27,4z" fill="#cfcfcf"></path> </g> <g> <path d="M23,12c0,3.86-3.14,7-7,7s-7-3.14-7-7s3.14-7,7-7S23,8.14,23,12z" fill="#96CEE5"></path> </g> <g> <path d="M19,12c0,1.65-1.35,3-3,3s-3-1.35-3-3c0-1.65,1.35-3,3-3S19,10.35,19,12z" fill="#4391B2"></path> </g> <g> <path d="M15,24c0,1.65-1.35,3-3,3s-3-1.35-3-3c0-1.65,1.35-3,3-3S15,22.35,15,24z" fill="#4391B2"></path> </g> <g> <path d="M23,24c0,1.65-1.35,3-3,3s-3-1.35-3-3c0-1.65,1.35-3,3-3S23,22.35,23,24z" fill="#4391B2"></path> </g> </g> <g id="Layer_17"></g> <g id="Layer_18"></g> <g id="Layer_19"></g> <g id="Layer_20"></g> <g id="Layer_21"></g> <g id="Layer_22"></g> <g id="Layer_23"></g> <g id="Layer_24"></g> <g id="Layer_25"></g> <g id="Layer_26"></g> <g id="Layer_27"></g> <g id="Layer_28"></g> <g id="Layer_29"></g> <g id="Layer_30"></g> <g id="Layer_31"></g> </g></svg>