<!DOCTYPE svg PUBLIC "-//W3C//DTD SVG 1.1//EN" "http://www.w3.org/Graphics/SVG/1.1/DTD/svg11.dtd">

<!-- Uploaded to: SVG Repo, www.svgrepo.com, Transformed by: SVG Repo Mixer Tools -->
<svg version="1.0" id="LayestrokeWidthhttp://www.w3.org/2000/svg" xmlns:xlink="http://www.w3.org/1999/xlink" width="800px" height="800px" viewBox="0 0 64 64" enable-background="new 0 0 64 64" xml:space="preserve" fill="#000000">

<g id="SVGRepo_bgCarrier" stroke-width="0"/>

<g id="SVGRepo_tracerCarrier" strokeLinecap="round" strokeLinejoin="round"/>

<g id="SVGRepo_iconCarrier"> <g> <circle fill="#787878" cx="32" cy="56" r="1"/> <circle fill="#787878" cx="42" cy="56" r="1"/> <path fill="#787878" d="M60,46V4c0-2.211-1.789-4-4-4H8C5.789,0,4,1.789,4,4v42H60z M32,6c9.941,0,18,8.059,18,18s-8.059,18-18,18 s-18-8.059-18-18S22.059,6,32,6z"/> <circle fill="#787878" cx="32" cy="24" r="16"/> <path fill="#787878" d="M4,48v12c0,2.211,1.789,4,4,4h48c2.211,0,4-1.789,4-4V48H4z M32,59c-1.657,0-3-1.344-3-3s1.343-3,3-3 s3,1.344,3,3S33.657,59,32,59z M42,59c-1.657,0-3-1.344-3-3s1.343-3,3-3s3,1.344,3,3S43.657,59,42,59z M52,59c-1.657,0-3-1.344-3-3 s1.343-3,3-3s3,1.344,3,3S53.657,59,52,59z"/> <circle fill="#787878" cx="52" cy="56" r="1"/> </g> </g>

</svg>