<!DOCTYPE svg PUBLIC "-//W3C//DTD SVG 1.1//EN" "http://www.w3.org/Graphics/SVG/1.1/DTD/svg11.dtd">
<!-- Uploaded to: SVG Repo, www.svgrepo.com, Transformed by: SVG Repo Mixer Tools -->
<svg width="800px" height="800px" viewBox="0 0 32 32" xmlns="http://www.w3.org/2000/svg" fill="#000000">
<g id="SVGRepo_bgCarrier" stroke-width="0"/>
<g id="SVGRepo_tracerCarrier" stroke-linecap="round" stroke-linejoin="round"/>
<g id="SVGRepo_iconCarrier"> <defs> <style>.cls-1{fill:#d6d6d6;}.cls-2{fill:#707070;}</style> </defs> <title/> <g data-name="Layer 9" id="Layer_9"> <rect class="cls-1" height="16.95" rx="1" width="21.09" x="8.91" y="13.05"/> <path class="cls-2" d="M28.31,22.86l-3.49-3.58a1,1,0,0,0-.71-.3h0a1,1,0,0,0-.71.3L19.91,22.8,16.77,19a1,1,0,0,0-.72-.36,1,1,0,0,0-.75.28L10.94,23.2a1,1,0,0,0-.3.71V27.5a1,1,0,0,0,1,1h16a1,1,0,0,0,1-1V23.56A1,1,0,0,0,28.31,22.86Z"/> <path class="cls-2" d="M20.12,20a2.4,2.4,0,0,1-.46,0,2,2,0,1,1,2.4-1.5,2,2,0,0,1-.89,1.25A2,2,0,0,1,20.12,20Z"/> <path class="cls-1" d="M20,7H4A1,1,0,0,0,3,8V19a1,1,0,0,0,1,1H7.46V12.5a1,1,0,0,1,1-1H21V8A1,1,0,0,0,20,7Z"/> </g> </g>
</svg>